# xmcd
#
# Track frame offsets:
#	150
#	13738
#	26043
#	38352
#	51727
#	63734
#	76828
#	90118
#	104396
#	118271
#	132534
#	144851
#	158290
#	171364
#	184658
#	197920
#	211208
#	225321
#	237022
#	250038
#	264189
#	278849
#	292112
#
# Disc length: 4047 seconds
#
# Revision: 0
# Processed by: cddbd v1.5.2PL0 Copyright (c) Steve Scherf et al.
# Submitted via: audiograbber 1.83.01
#
DISCID=380fcd17
DTITLE=Various Artist - Midnight Steppers (Disc1)
DYEAR=2013
DGENRE=R&B
TTITLE0=Memphis Slim - Beer Drinking Woman
TTITLE1=Champion Jack Dupree - Junker Blues
TTITLE2=Big Bill Broonzy (feat. Josh Altheimer) - Midnight Steppers
TTITLE3=Roosevelt Sykes - Let Me Hang My Stocking In Your Christmas Tree
TTITLE4=Curtis Jones - Sugar Bowl Blues
TTITLE5=Big Maceo - Worried Life Blues
TTITLE6=Memphis Slim - You Got to Help Me Some
TTITLE7=Roosevelt Sykes - 44 Blues
TTITLE8=Roosevelt Sykes - New Mistake In Life
TTITLE9=Big Maceo - Can't You Read
TTITLE10=Walter Davis - New Come Back Baby
TTITLE11=Memphis Slim - I See My Great Mistake
TTITLE12=Bob White - I'm The Woogie Man
TTITLE13=Walter Davis - Frisco Blues
TTITLE14=Curtis Jones - Tin Pan Alley
TTITLE15=Big Maceo - Chicago Breakdown
TTITLE16=Memphis Slim - Grinder Man Blues
TTITLE17=Roosevelt Sykes - This Tavern Boogie
TTITLE18=Big Maceo - Won't Be a Fool No More
TTITLE19=Champion Jack Dupree - Drunk Again
TTITLE20=Little Brother Montgomery - Vicksburg Blues
TTITLE21=Walter Davis - Tears Come Rolling Down
TTITLE22=Roosevelt Sykes - Blues 'N' Boogie
EXTD=
EXTT0=
EXTT1=
EXTT2=
EXTT3=
EXTT4=
EXTT5=
EXTT6=
EXTT7=
EXTT8=
EXTT9=
EXTT10=
EXTT11=
EXTT12=
EXTT13=
EXTT14=
EXTT15=
EXTT16=
EXTT17=
EXTT18=
EXTT19=
EXTT20=
EXTT21=
EXTT22=
PLAYORDER=
